<?xml version="1.0" standalone="no"?>
<!DOCTYPE svg PUBLIC "-//W3C//DTD SVG 20010904//EN"
 "http://www.w3.org/TR/2001/REC-SVG-20010904/DTD/svg10.dtd">
<svg version="1.0" xmlns="http://www.w3.org/2000/svg"
 width="128.000000pt" height="128.000000pt" viewBox="0 0 128.000000 128.000000"
 preserveAspectRatio="xMidYMid meet">
<metadata>
Created by potrace 1.11, written by Peter Selinger 2001-2013
</metadata>
<g transform="translate(0.000000,128.000000) scale(0.100000,-0.100000)"
fill="#000000" stroke="none">
<path d="M440 1223 c-33 -12 -71 -59 -76 -93 -6 -34 -13 -40 -161 -124 -85
-49 -163 -100 -174 -114 -44 -56 -35 -77 184 -456 111 -193 213 -363 227 -379
38 -42 96 -47 154 -13 l46 27 39 -21 c58 -29 114 -27 150 8 41 38 432 718 438
762 8 57 -26 93 -162 172 -66 39 -139 79 -161 89 -34 15 -43 25 -48 52 -3 19
-20 47 -37 63 l-30 29 -187 2 c-103 1 -194 -1 -202 -4z m392 -60 c17 -15 18
-42 18 -446 0 -387 -2 -432 -17 -449 -14 -16 -35 -18 -201 -18 -159 0 -188 2
-204 17 -17 15 -18 42 -18 446 0 387 2 432 17 449 14 16 35 18 201 18 159 0
188 -2 204 -17z m232 -201 c120 -70 151 -92 157 -114 6 -23 -17 -69 -153 -305
-88 -153 -162 -280 -164 -282 -2 -2 -4 53 -4 122 0 116 1 126 18 121 16 -5 16
-5 0 6 -15 9 -18 27 -18 111 0 77 3 99 13 93 10 -6 10 -4 0 7 -13 13 -19 129
-7 129 3 0 52 -27 109 -60 101 -58 127 -65 139 -34 11 30 -15 53 -134 121
l-120 68 0 53 c0 28 3 52 8 52 4 0 74 -40 156 -88z m-704 24 l0 -55 -120 -68
c-94 -53 -120 -73 -120 -89 0 -12 7 -27 16 -34 17 -15 39 -6 161 65 l62 36 0
-63 c-1 -46 -5 -65 -17 -75 -16 -12 -16 -13 1 -7 16 6 17 -5 17 -129 0 -119
-2 -135 -16 -133 -26 2 -29 -25 -4 -31 13 -3 19 -11 16 -19 -3 -8 -1 -35 3
-62 5 -26 8 -48 7 -50 -2 -1 -74 120 -160 270 -141 243 -157 276 -149 301 7
24 33 44 153 113 79 46 146 84 147 84 2 0 3 -24 3 -54z m80 -788 c0 -4 15 -5
33 -2 32 6 32 6 9 -11 -40 -29 -12 -36 38 -9 26 14 54 24 61 22 7 -2 -10 -18
-39 -34 -29 -16 -52 -35 -52 -42 0 -10 9 -9 33 6 118 71 124 73 183 70 l58 -3
-115 -67 c-149 -86 -155 -85 -221 31 -47 81 -47 82 -18 64 17 -9 30 -21 30
-25z m404 -45 c-45 -81 -79 -99 -132 -69 l-24 13 27 17 c17 11 36 15 52 11 20
-5 24 -3 20 9 -4 11 7 23 36 41 23 13 43 25 45 25 2 0 -9 -21 -24 -47z"/>
<path d="M453 1083 c-7 -2 -13 -20 -13 -38 l0 -34 190 -3 190 -3 0 31 c0 51
-9 54 -190 53 -91 0 -171 -3 -177 -6z"/>
<path d="M444 969 c-9 -15 11 -33 30 -26 9 4 13 13 10 22 -7 17 -30 20 -40 4z"/>
<path d="M563 953 c37 -2 96 -2 130 0 34 2 4 3 -68 3 -71 0 -99 -1 -62 -3z"/>
<path d="M451 906 c-9 -10 -8 -16 3 -25 10 -9 16 -8 25 3 9 10 8 16 -3 25 -10
9 -16 8 -25 -3z"/>
<path d="M563 893 c37 -2 96 -2 130 0 34 2 4 3 -68 3 -71 0 -99 -1 -62 -3z"/>
<path d="M445 840 c-4 -7 -3 -16 3 -22 14 -14 45 -2 40 15 -6 16 -34 21 -43 7z"/>
<path d="M563 833 c37 -2 96 -2 130 0 34 2 4 3 -68 3 -71 0 -99 -1 -62 -3z"/>
<path d="M444 779 c-9 -15 11 -33 30 -26 9 4 13 13 10 22 -7 17 -30 20 -40 4z"/>
<path d="M451 726 c-9 -10 -8 -16 3 -25 10 -9 16 -8 25 3 9 10 8 16 -3 25 -10
9 -16 8 -25 -3z"/>
<path d="M563 713 c37 -2 97 -2 135 0 37 2 6 3 -68 3 -74 0 -105 -1 -67 -3z"/>
<path d="M445 660 c-8 -13 3 -30 20 -30 14 0 27 24 18 34 -10 9 -31 7 -38 -4z"/>
<path d="M563 653 c37 -2 96 -2 130 0 34 2 4 3 -68 3 -71 0 -99 -1 -62 -3z"/>
<path d="M445 600 c-4 -7 -3 -16 3 -22 14 -14 45 -2 40 15 -6 16 -34 21 -43 7z"/>
<path d="M444 539 c-9 -15 11 -33 30 -26 9 4 13 13 10 22 -7 17 -30 20 -40 4z"/>
<path d="M563 523 c37 -2 96 -2 130 0 34 2 4 3 -68 3 -71 0 -99 -1 -62 -3z"/>
<path d="M440 455 c0 -13 28 -15 190 -15 162 0 190 2 190 15 0 13 -28 15 -190
15 -162 0 -190 -2 -190 -15z"/>
<path d="M440 410 c0 -6 70 -10 190 -10 120 0 190 4 190 10 0 6 -70 10 -190
10 -120 0 -190 -4 -190 -10z"/>
<path d="M440 365 c0 -13 28 -15 190 -15 162 0 190 2 190 15 0 13 -28 15 -190
15 -162 0 -190 -2 -190 -15z"/>
<path d="M440 320 c0 -6 70 -10 190 -10 120 0 190 4 190 10 0 6 -70 10 -190
10 -120 0 -190 -4 -190 -10z"/>
<path d="M930 706 c0 -3 14 -12 30 -21 17 -9 30 -13 30 -11 0 3 -13 12 -30 21
-16 9 -30 13 -30 11z"/>
<path d="M172 683 c2 -10 10 -18 18 -18 8 0 16 8 18 18 2 12 -3 17 -18 17 -15
0 -20 -5 -18 -17z"/>
<path d="M288 674 c-38 -20 -36 -28 2 -9 17 9 30 18 30 20 0 7 -1 6 -32 -11z"/>
<path d="M207 644 c-14 -15 -6 -34 14 -34 14 0 19 5 17 17 -3 18 -20 27 -31
17z"/>
<path d="M230 576 c0 -15 24 -28 34 -19 13 14 5 33 -14 33 -11 0 -20 -6 -20
-14z"/>
<path d="M264 529 c-8 -14 11 -33 25 -25 6 4 11 14 11 22 0 16 -26 19 -36 3z"/>
<path d="M292 473 c2 -10 10 -18 18 -18 8 0 16 8 18 18 2 12 -3 17 -18 17 -15
0 -20 -5 -18 -17z"/>
</g>
</svg>
